# xmcd
#
# Track frame offsets: 
#        150
#        14197
#        25997
#        39530
#        52622
#        65202
#        78025
#        91347
#        105947
#        119457
#        133120
#        146707
#        160002
#        173095
#        186490
#        200507
#        214515
#        228532
#        243055
#        254252
#        268120
#        280717
#        294090
#        307260
#        320497
#
# Disc length: 4439 seconds
#
# Revision: 3
# Processed by: cddbd v1.5.2PL0 Copyright (c) Steve Scherf et al.
# Submitted via: ExactAudioCopy v1.0b1
#
DISCID=66115519
DTITLE=T-Bone Walker - The Complete Capitol - Black and White Recordings
DTITLE=, Disc 3
DYEAR=1995
DGENRE=Blues
TTITLE0=Description Blues
TTITLE1=T-Bone Shuffle (alt)
TTITLE2=T-Bone Shuffle
TTITLE3=That Old Feelin' Is Gone
TTITLE4=The Time Seems So Long
TTITLE5=Prison Blues
TTITLE6=Hometown Blues
TTITLE7=Wise Man Blues (alt)
TTITLE8=Wise Man blues
TTITLE9=Misfortune Blues (alt)
TTITLE10=Misfortune Blues
TTITLE11=I Wish You Were Mine (alt)
TTITLE12=I Wish You Were Mine
TTITLE13=I'm Gonna Move You Out And Get Somebody Else
TTITLE14=She's The No-Sleepin'est Woman (alt)
TTITLE15=She's The No-Sleepin'est Woman
TTITLE16=Plain Old Down Home Blues
TTITLE17=Born To Be No Good
TTITLE18=Go Back To The One You Love (alt)
TTITLE19=Go Back To The One You Love
TTITLE20=I Want A Little Girl
TTITLE21=I'm Still In Love With You
TTITLE22=You're My Best Poker Hand (alt)
TTITLE23=You're My Best Poker Hand
TTITLE24=West Side Baby
EXTD=
EXTT0=
EXTT1=
EXTT2=
EXTT3=
EXTT4=
EXTT5=
EXTT6=
EXTT7=
EXTT8=
EXTT9=
EXTT10=
EXTT11=
EXTT12=
EXTT13=
EXTT14=
EXTT15=
EXTT16=
EXTT17=
EXTT18=
EXTT19=
EXTT20=
EXTT21=
EXTT22=
EXTT23=
EXTT24=
PLAYORDER=
